<svg width="15" height="14" viewBox="0 0 15 14" fill="none" xmlns="http://www.w3.org/2000/svg">
<path d="M7.23176 0.463526C7.38144 0.00287008 8.03314 0.0028702 8.18282 0.463526L9.51005 4.54833C9.57699 4.75434 9.76897 4.89382 9.98558 4.89382H14.2806C14.765 4.89382 14.9663 5.51363 14.5745 5.79833L11.0997 8.32288C10.9245 8.4502 10.8512 8.67588 10.9181 8.88189L12.2453 12.9667C12.395 13.4274 11.8678 13.8104 11.4759 13.5257L8.00118 11.0012C7.82594 10.8738 7.58864 10.8738 7.4134 11.0012L3.93866 13.5257C3.5468 13.8104 3.01956 13.4274 3.16924 12.9667L4.49647 8.88189C4.56341 8.67588 4.49008 8.4502 4.31483 8.32288L0.840092 5.79833C0.448235 5.51363 0.649623 4.89382 1.13398 4.89382H5.429C5.64561 4.89382 5.83759 4.75434 5.90453 4.54833L7.23176 0.463526Z" fill="#F37121"/>
</svg>
